<?xml version="1.0" standalone="no"?>
<!DOCTYPE svg PUBLIC "-//W3C//DTD SVG 20010904//EN"
 "http://www.w3.org/TR/2001/REC-SVG-20010904/DTD/svg10.dtd">
<svg version="1.0" xmlns="http://www.w3.org/2000/svg"
 width="320.000000pt" height="320.000000pt" viewBox="0 0 320.000000 320.000000"
 preserveAspectRatio="xMidYMid meet">
<metadata>
Created by potrace 1.14, written by Peter Selinger 2001-2017
</metadata>
<g transform="translate(0.000000,320.000000) scale(0.100000,-0.100000)"
fill="#000000" stroke="none">
<path d="M1405 3193 c-118 -15 -312 -64 -395 -100 -177 -75 -341 -177 -481
-297 -121 -103 -168 -180 -169 -272 0 -94 73 -197 127 -177 55 19 68 66 33
118 -22 33 -25 70 -11 108 26 67 252 245 420 331 211 108 410 157 641 159 80
1 176 -2 213 -7 64 -8 70 -7 93 15 29 27 31 58 5 90 -13 17 -33 24 -77 30 -63
7 -349 9 -399 2z"/>
<path d="M2058 3103 c-44 -52 -27 -93 51 -124 489 -194 824 -592 922 -1097 24
-123 40 -152 83 -152 32 0 66 30 67 60 4 59 -35 234 -77 350 -116 323 -338
608 -622 799 -121 82 -333 181 -385 181 -13 0 -31 -8 -39 -17z"/>
<path d="M1498 2864 c-2 -1 -28 -5 -58 -7 -233 -22 -512 -150 -692 -320 -64
-60 -73 -92 -38 -127 32 -32 62 -24 136 36 227 187 437 270 704 281 289 12
546 -77 775 -266 55 -45 92 -52 119 -22 34 37 30 67 -16 112 -133 129 -374
248 -598 294 -71 14 -323 29 -332 19z"/>
<path d="M1527 2525 c-1 -2 -29 -5 -61 -9 -33 -3 -70 -13 -83 -21 -46 -30 -38
-96 14 -116 16 -6 47 -5 91 2 224 39 490 -50 660 -222 180 -181 252 -411 219
-692 -9 -74 -3 -92 41 -108 24 -9 60 3 74 25 29 44 40 267 19 383 -58 315
-274 579 -571 696 -36 14 -81 29 -100 32 -18 3 -36 8 -39 10 -19 11 -253 29
-264 20z"/>
<path d="M1049 2344 c-68 -46 -111 -97 -111 -131 0 -31 34 -63 68 -63 24 0
157 107 168 136 14 37 -5 64 -65 91 -4 1 -31 -14 -60 -33z"/>
<path d="M2567 2272 c-27 -29 -20 -63 28 -158 88 -172 125 -339 120 -539 -7
-305 -131 -577 -364 -798 -33 -33 -61 -62 -62 -65 0 -4 -2 -15 -4 -24 -2 -10
6 -29 17 -43 29 -37 69 -33 120 13 396 348 535 896 354 1391 -22 60 -94 202
-113 223 -21 24 -75 23 -96 0z"/>
<path d="M3092 1515 c-30 -13 -37 -27 -46 -105 -27 -207 -124 -457 -248 -637
-99 -144 -278 -314 -433 -410 -89 -56 -207 -110 -320 -147 -60 -20 -116 -44
-122 -53 -21 -28 -16 -70 12 -91 29 -23 55 -19 185 24 425 143 793 493 961
917 46 116 91 289 104 404 9 84 -29 124 -93 98z"/>
<path d="M740 1200 c-117 -33 -202 -159 -138 -204 37 -26 67 -20 107 24 39 43
93 61 126 43 9 -5 55 -48 103 -94 98 -96 149 -133 248 -182 232 -115 505 -128
744 -35 150 58 357 221 412 324 l23 43 -21 28 c-13 18 -32 29 -51 31 -25 3
-38 -7 -96 -71 -208 -232 -478 -324 -773 -263 -149 31 -303 124 -431 260 -34
37 -79 74 -99 82 -42 18 -117 25 -154 14z"/>
<path d="M715 800 c-34 -37 -23 -70 46 -133 144 -133 361 -245 554 -287 101
-22 133 -25 300 -24 140 0 186 4 260 22 130 32 223 70 242 98 20 31 10 69 -23
90 -24 16 -29 15 -117 -15 -51 -17 -103 -34 -117 -36 -118 -24 -194 -31 -288
-29 -163 3 -318 41 -468 114 -98 47 -233 140 -283 194 -30 32 -80 35 -106 6z"/>
<path d="M388 684 c-31 -16 -43 -56 -26 -88 16 -30 139 -159 197 -206 24 -19
49 -40 55 -46 36 -34 195 -132 282 -175 174 -84 322 -126 539 -154 75 -10 227
-6 241 6 29 24 36 49 24 79 -15 37 -26 40 -140 46 -89 4 -137 8 -220 20 -59 9
-212 52 -280 80 -195 79 -344 178 -495 327 -60 60 -119 113 -130 117 -13 5
-31 3 -47 -6z"/>
</g>
</svg>
